<mxfile host="Electron" agent="Mozilla/5.0 (Windows NT 10.0; Win64; x64) AppleWebKit/537.36 (KHTML, like Gecko) draw.io/28.1.2 Chrome/138.0.7204.243 Electron/37.4.0 Safari/537.36" version="28.1.2">
  <diagram name="Page-1" id="ZGZTSU7eNrD8ZnqdS6AF">
    <mxGraphModel dx="533" dy="694" grid="1" gridSize="10" guides="1" tooltips="1" connect="1" arrows="1" fold="1" page="1" pageScale="1" pageWidth="850" pageHeight="1100" math="0" shadow="0">
      <root>
        <mxCell id="0" />
        <mxCell id="1" parent="0" />
        <mxCell id="2sKW726GPTn3srNQvzTI-2" value="LSTMPricePredictor" style="swimlane;fontStyle=0;childLayout=stackLayout;horizontal=1;startSize=26;fillColor=none;horizontalStack=0;resizeParent=1;resizeParentMax=0;resizeLast=0;collapsible=1;marginBottom=0;whiteSpace=wrap;html=1;" vertex="1" parent="1">
          <mxGeometry x="60" y="440" width="140" height="300" as="geometry" />
        </mxCell>
        <mxCell id="2sKW726GPTn3srNQvzTI-3" value="+ name: str" style="text;strokeColor=none;fillColor=none;align=left;verticalAlign=top;spacingLeft=4;spacingRight=4;overflow=hidden;rotatable=0;points=[[0,0.5],[1,0.5]];portConstraint=eastwest;whiteSpace=wrap;html=1;" vertex="1" parent="2sKW726GPTn3srNQvzTI-2">
          <mxGeometry y="26" width="140" height="26" as="geometry" />
        </mxCell>
        <mxCell id="2sKW726GPTn3srNQvzTI-4" value="+ vn_api: object" style="text;strokeColor=none;fillColor=none;align=left;verticalAlign=top;spacingLeft=4;spacingRight=4;overflow=hidden;rotatable=0;points=[[0,0.5],[1,0.5]];portConstraint=eastwest;whiteSpace=wrap;html=1;" vertex="1" parent="2sKW726GPTn3srNQvzTI-2">
          <mxGeometry y="52" width="140" height="26" as="geometry" />
        </mxCell>
        <mxCell id="2sKW726GPTn3srNQvzTI-5" value="+ ai_agent: object" style="text;strokeColor=none;fillColor=none;align=left;verticalAlign=top;spacingLeft=4;spacingRight=4;overflow=hidden;rotatable=0;points=[[0,0.5],[1,0.5]];portConstraint=eastwest;whiteSpace=wrap;html=1;" vertex="1" parent="2sKW726GPTn3srNQvzTI-2">
          <mxGeometry y="78" width="140" height="222" as="geometry" />
        </mxCell>
        <mxCell id="2sKW726GPTn3srNQvzTI-7" value="+ scaler: MinMaxScaler" style="text;strokeColor=none;fillColor=none;align=left;verticalAlign=top;spacingLeft=4;spacingRight=4;overflow=hidden;rotatable=0;points=[[0,0.5],[1,0.5]];portConstraint=eastwest;whiteSpace=wrap;html=1;" vertex="1" parent="1">
          <mxGeometry x="60" y="540" width="140" height="20" as="geometry" />
        </mxCell>
        <mxCell id="2sKW726GPTn3srNQvzTI-8" value="+ model: KerasModel" style="text;strokeColor=none;fillColor=none;align=left;verticalAlign=top;spacingLeft=4;spacingRight=4;overflow=hidden;rotatable=0;points=[[0,0.5],[1,0.5]];portConstraint=eastwest;whiteSpace=wrap;html=1;" vertex="1" parent="1">
          <mxGeometry x="60" y="560" width="140" height="26" as="geometry" />
        </mxCell>
        <mxCell id="2sKW726GPTn3srNQvzTI-9" value="+ look_back: int" style="text;strokeColor=none;fillColor=none;align=left;verticalAlign=top;spacingLeft=4;spacingRight=4;overflow=hidden;rotatable=0;points=[[0,0.5],[1,0.5]];portConstraint=eastwest;whiteSpace=wrap;html=1;" vertex="1" parent="1">
          <mxGeometry x="60" y="586" width="140" height="26" as="geometry" />
        </mxCell>
        <mxCell id="2sKW726GPTn3srNQvzTI-10" value="- model_cache: dict" style="text;strokeColor=none;fillColor=none;align=left;verticalAlign=top;spacingLeft=4;spacingRight=4;overflow=hidden;rotatable=0;points=[[0,0.5],[1,0.5]];portConstraint=eastwest;whiteSpace=wrap;html=1;" vertex="1" parent="1">
          <mxGeometry x="60" y="612" width="140" height="26" as="geometry" />
        </mxCell>
        <mxCell id="2sKW726GPTn3srNQvzTI-11" value="- create_dataset (dataset:array, look_back: int)" style="text;strokeColor=none;fillColor=none;align=left;verticalAlign=top;spacingLeft=4;spacingRight=4;overflow=hidden;rotatable=0;points=[[0,0.5],[1,0.5]];portConstraint=eastwest;whiteSpace=wrap;html=1;" vertex="1" parent="1">
          <mxGeometry x="60" y="638" width="140" height="52" as="geometry" />
        </mxCell>
        <mxCell id="2sKW726GPTn3srNQvzTI-12" value="- build_model&lt;div&gt;(input_shape:tuple)&lt;/div&gt;" style="text;strokeColor=none;fillColor=none;align=left;verticalAlign=top;spacingLeft=4;spacingRight=4;overflow=hidden;rotatable=0;points=[[0,0.5],[1,0.5]];portConstraint=eastwest;whiteSpace=wrap;html=1;" vertex="1" parent="1">
          <mxGeometry x="60" y="690" width="140" height="40" as="geometry" />
        </mxCell>
        <mxCell id="2sKW726GPTn3srNQvzTI-16" value="" style="endArrow=classic;html=1;rounded=0;entryX=-0.014;entryY=0.801;entryDx=0;entryDy=0;entryPerimeter=0;" edge="1" parent="1" target="2sKW726GPTn3srNQvzTI-27">
          <mxGeometry width="50" height="50" relative="1" as="geometry">
            <mxPoint x="200" y="612" as="sourcePoint" />
            <mxPoint x="320" y="614" as="targetPoint" />
          </mxGeometry>
        </mxCell>
        <mxCell id="2sKW726GPTn3srNQvzTI-17" value="PricePredictor" style="swimlane;fontStyle=0;childLayout=stackLayout;horizontal=1;startSize=26;fillColor=none;horizontalStack=0;resizeParent=1;resizeParentMax=0;resizeLast=0;collapsible=1;marginBottom=0;whiteSpace=wrap;html=1;" vertex="1" parent="1">
          <mxGeometry x="320" y="440" width="180" height="300" as="geometry" />
        </mxCell>
        <mxCell id="2sKW726GPTn3srNQvzTI-18" value="+ name: str" style="text;strokeColor=none;fillColor=none;align=left;verticalAlign=top;spacingLeft=4;spacingRight=4;overflow=hidden;rotatable=0;points=[[0,0.5],[1,0.5]];portConstraint=eastwest;whiteSpace=wrap;html=1;" vertex="1" parent="2sKW726GPTn3srNQvzTI-17">
          <mxGeometry y="26" width="180" height="26" as="geometry" />
        </mxCell>
        <mxCell id="2sKW726GPTn3srNQvzTI-19" value="+ vn_api: object" style="text;strokeColor=none;fillColor=none;align=left;verticalAlign=top;spacingLeft=4;spacingRight=4;overflow=hidden;rotatable=0;points=[[0,0.5],[1,0.5]];portConstraint=eastwest;whiteSpace=wrap;html=1;" vertex="1" parent="2sKW726GPTn3srNQvzTI-17">
          <mxGeometry y="52" width="180" height="26" as="geometry" />
        </mxCell>
        <mxCell id="2sKW726GPTn3srNQvzTI-20" value="+ stock_info: object" style="text;strokeColor=none;fillColor=none;align=left;verticalAlign=top;spacingLeft=4;spacingRight=4;overflow=hidden;rotatable=0;points=[[0,0.5],[1,0.5]];portConstraint=eastwest;whiteSpace=wrap;html=1;" vertex="1" parent="2sKW726GPTn3srNQvzTI-17">
          <mxGeometry y="78" width="180" height="222" as="geometry" />
        </mxCell>
        <mxCell id="2sKW726GPTn3srNQvzTI-21" value="+ lstm_predictor: LSTMPricePredictor" style="text;strokeColor=none;fillColor=none;align=left;verticalAlign=top;spacingLeft=4;spacingRight=4;overflow=hidden;rotatable=0;points=[[0,0.5],[1,0.5]];portConstraint=eastwest;whiteSpace=wrap;html=1;" vertex="1" parent="1">
          <mxGeometry x="320" y="538" width="140" height="42" as="geometry" />
        </mxCell>
        <mxCell id="2sKW726GPTn3srNQvzTI-26" value="" style="endArrow=none;html=1;rounded=0;entryX=0.994;entryY=0.954;entryDx=0;entryDy=0;entryPerimeter=0;" edge="1" parent="1" target="2sKW726GPTn3srNQvzTI-9">
          <mxGeometry width="50" height="50" relative="1" as="geometry">
            <mxPoint x="60" y="610" as="sourcePoint" />
            <mxPoint x="110" y="560" as="targetPoint" />
          </mxGeometry>
        </mxCell>
        <mxCell id="2sKW726GPTn3srNQvzTI-27" value="+ predict_comprehensive&lt;div&gt;(symbol:str)&lt;/div&gt;" style="text;strokeColor=none;fillColor=none;align=left;verticalAlign=top;spacingLeft=4;spacingRight=4;overflow=hidden;rotatable=0;points=[[0,0.5],[1,0.5]];portConstraint=eastwest;whiteSpace=wrap;html=1;" vertex="1" parent="1">
          <mxGeometry x="320" y="579" width="155" height="42" as="geometry" />
        </mxCell>
        <mxCell id="2sKW726GPTn3srNQvzTI-29" value="+predict_with_lstm_enhanced&lt;div&gt;(symbol:str)&lt;/div&gt;" style="text;strokeColor=none;fillColor=none;align=left;verticalAlign=top;spacingLeft=4;spacingRight=4;overflow=hidden;rotatable=0;points=[[0,0.5],[1,0.5]];portConstraint=eastwest;whiteSpace=wrap;html=1;" vertex="1" parent="1">
          <mxGeometry x="320" y="620" width="175" height="40" as="geometry" />
        </mxCell>
        <mxCell id="2sKW726GPTn3srNQvzTI-31" value="- get_historical_data&lt;div&gt;(symbol: str)&lt;/div&gt;&lt;div&gt;&lt;span style=&quot;background-color: transparent; color: light-dark(rgb(0, 0, 0), rgb(255, 255, 255));&quot;&gt;_calculate_technical_indicators&lt;/span&gt;&lt;/div&gt;&lt;div&gt;(df:DataFrame)&lt;/div&gt;" style="text;strokeColor=none;fillColor=none;align=left;verticalAlign=top;spacingLeft=4;spacingRight=4;overflow=hidden;rotatable=0;points=[[0,0.5],[1,0.5]];portConstraint=eastwest;whiteSpace=wrap;html=1;" vertex="1" parent="1">
          <mxGeometry x="320" y="660" width="175" height="100" as="geometry" />
        </mxCell>
        <mxCell id="2sKW726GPTn3srNQvzTI-39" value="" style="endArrow=none;html=1;rounded=0;" edge="1" parent="1">
          <mxGeometry width="50" height="50" relative="1" as="geometry">
            <mxPoint x="320" y="663.38" as="sourcePoint" />
            <mxPoint x="500" y="663.38" as="targetPoint" />
          </mxGeometry>
        </mxCell>
      </root>
    </mxGraphModel>
  </diagram>
</mxfile>
